<svg width="24" height="24" viewBox="0 0 24 24" fill="none" xmlns="http://www.w3.org/2000/svg">
<path d="M8.59885 15.5291V8.62532C8.60011 8.6179 8.59884 8.61027 8.59527 8.60365C8.59169 8.59702 8.586 8.59178 8.5791 8.58877C8.5722 8.58575 8.56449 8.58512 8.5572 8.58699C8.54991 8.58886 8.54345 8.59311 8.53885 8.59907C8.53885 8.59907 7.57135 9.98282 6.9751 10.3916" stroke="black" stroke-linecap="round"/>
<path d="M12.7125 8.44531H12.7088C11.5283 8.44531 10.5713 9.4023 10.5713 10.5828V13.3916C10.5713 14.5721 11.5283 15.5291 12.7088 15.5291H12.7125C13.893 15.5291 14.85 14.5721 14.85 13.3916V10.5828C14.85 9.4023 13.893 8.44531 12.7125 8.44531Z" stroke="black"/>
<path d="M20.4094 5.77734L19.4344 9.01734L16.1944 8.03859" stroke="black" stroke-linecap="round"/>
<path d="M19.4456 8.97666C18.7247 7.15328 17.3755 5.6478 15.6417 4.73218C13.9079 3.81655 11.9039 3.55113 9.9915 3.98387C8.07913 4.41661 6.38456 5.51897 5.21387 7.09183C4.04319 8.6647 3.47357 10.6044 3.60791 12.5605C3.74226 14.5166 4.57171 16.3602 5.94643 17.7582C7.32116 19.1563 9.15053 20.0166 11.1041 20.1838C13.0577 20.3511 15.0066 19.8141 16.599 18.6701C18.1913 17.526 19.322 15.8502 19.7869 13.9454" stroke="black" stroke-linecap="round"/>
</svg>
