<svg width="24" height="24" viewBox="0 0 24 24" fill="none" xmlns="http://www.w3.org/2000/svg">
<path d="M10.0988 15.5291V8.62532C10.1001 8.6179 10.0988 8.61027 10.0953 8.60365C10.0917 8.59702 10.086 8.59178 10.0791 8.58877C10.0722 8.58575 10.0645 8.58512 10.0572 8.58699C10.0499 8.58886 10.0434 8.59311 10.0388 8.59907C10.0388 8.59907 9.07135 9.98282 8.4751 10.3916" stroke="black" stroke-linecap="round"/>
<path d="M14.2125 8.44531H14.2088C13.0283 8.44531 12.0713 9.4023 12.0713 10.5828V13.3916C12.0713 14.5721 13.0283 15.5291 14.2088 15.5291H14.2125C15.393 15.5291 16.35 14.5721 16.35 13.3916V10.5828C16.35 9.4023 15.393 8.44531 14.2125 8.44531Z" stroke="black"/>
<path d="M3.58887 5.77734L4.56387 9.01734L7.80387 8.03859" stroke="black" stroke-linecap="round"/>
<path d="M4.55268 8.97666C5.27357 7.15328 6.62276 5.6478 8.35656 4.73218C10.0903 3.81655 12.0944 3.55113 14.0068 3.98387C15.9192 4.41661 17.6137 5.51897 18.7844 7.09183C19.9551 8.6647 20.5247 10.6044 20.3904 12.5605C20.256 14.5166 19.4266 16.3602 18.0519 17.7582C16.6771 19.1563 14.8478 20.0166 12.8942 20.1838C10.9406 20.3511 8.99165 19.8141 7.39931 18.6701C5.80698 17.526 4.67627 15.8502 4.21143 13.9454" stroke="black" stroke-linecap="round"/>
</svg>
