<svg width="50" height="50" viewBox="0 0 50 50" fill="none" xmlns="http://www.w3.org/2000/svg">
<path d="M38.234 40.8607C38.078 40.9479 37.9013 40.9913 37.7226 40.9864C37.544 40.9814 37.37 40.9283 37.219 40.8327L14.75 26.7357V40.2227C14.75 40.4879 14.6446 40.7422 14.4571 40.9298C14.2696 41.1173 14.0152 41.2227 13.75 41.2227C13.4848 41.2227 13.2304 41.1173 13.0429 40.9298C12.8554 40.7422 12.75 40.4879 12.75 40.2227V10.2227C12.75 9.95744 12.8554 9.70309 13.0429 9.51555C13.2304 9.32801 13.4848 9.22266 13.75 9.22266C14.0152 9.22266 14.2696 9.32801 14.4571 9.51555C14.6446 9.70309 14.75 9.95744 14.75 10.2227V23.7097L37.219 9.61366C37.3703 9.51883 37.5443 9.46626 37.7228 9.4614C37.9013 9.45654 38.0778 9.49956 38.2341 9.58601C38.3903 9.67246 38.5206 9.79917 38.6113 9.95298C38.7021 10.1068 38.7499 10.2821 38.75 10.4607V39.9857C38.75 40.3507 38.552 40.6857 38.234 40.8607ZM36.75 12.2697L16.102 25.2237L36.75 38.1787V12.2697Z" fill="#231F20"/>
</svg>
